<svg xmlns="http://www.w3.org/2000/svg" xmlns:xlink="http://www.w3.org/1999/xlink" width="1640" zoomAndPan="magnify" viewBox="0 0 1230 693.000001" height="924" preserveAspectRatio="xMidYMid meet" version="1.0"><defs><clipPath id="5a9fb58c4d"><path d="M 0.886719 0 L 1229.113281 0 L 1229.113281 692 L 0.886719 692 Z M 0.886719 0 " clip-rule="nonzero"/></clipPath><clipPath id="beb0b91d70"><path d="M 440.027344 194.167969 L 771.800781 194.167969 L 771.800781 471 L 440.027344 471 Z M 440.027344 194.167969 " clip-rule="nonzero"/></clipPath></defs><g clip-path="url(#5a9fb58c4d)"><path fill="#ffffff" d="M 0.886719 0 L 1229.113281 0 L 1229.113281 692 L 0.886719 692 Z M 0.886719 0 " fill-opacity="1" fill-rule="nonzero"/><path fill="#000000" d="M 0.886719 0 L 1229.113281 0 L 1229.113281 692 L 0.886719 692 Z M 0.886719 0 " fill-opacity="1" fill-rule="nonzero"/></g><path fill="#ffffff" d="M 602.234375 362.933594 C 602.226562 362.933594 602.222656 362.933594 602.21875 362.933594 C 583.621094 362.929688 574.191406 337.785156 573.390625 327.300781 C 571.742188 305.660156 581.679688 290.75 603.292969 290.75 C 624.859375 290.75 634.84375 305.617188 633.191406 327.300781 C 632.246094 339.730469 622.195312 362.933594 602.234375 362.933594 Z M 603.292969 302.78125 C 588.730469 302.78125 584.289062 311.980469 585.386719 326.386719 C 585.957031 333.875 592.910156 350.90625 602.222656 350.90625 C 602.226562 350.90625 602.230469 350.90625 602.230469 350.90625 C 614.242188 350.90625 620.664062 333.367188 621.195312 326.386719 C 622.3125 311.804688 617.726562 302.78125 603.292969 302.78125 Z M 603.292969 302.78125 " fill-opacity="1" fill-rule="nonzero"/><g clip-path="url(#beb0b91d70)"><path fill="#ffffff" d="M 771.761719 279.660156 L 771.761719 217.039062 C 771.761719 204.8125 761.375 194.804688 748.371094 194.238281 L 652.871094 194.210938 C 638.824219 194.210938 627.390625 204.453125 627.390625 217.039062 L 627.390625 254.367188 L 473 254.367188 C 465.261719 254.367188 458.960938 261.125 458.960938 269.433594 L 458.960938 422.800781 L 453.613281 422.800781 C 446.171875 422.800781 440.113281 428.53125 440.113281 435.582031 C 440.113281 455.066406 457.363281 470.921875 478.566406 470.921875 L 728.097656 470.921875 C 749.300781 470.921875 766.550781 455.066406 766.550781 435.582031 C 766.550781 428.53125 760.492188 422.800781 753.039062 422.800781 L 747.703125 422.808594 L 747.703125 302.441406 C 761.011719 302.191406 771.761719 292.089844 771.761719 279.660156 Z M 639.425781 217.039062 C 639.425781 211.085938 645.457031 206.242188 652.871094 206.242188 L 747.210938 206.242188 C 754.117188 206.242188 759.734375 211.085938 759.734375 217.039062 L 759.734375 279.660156 C 759.734375 285.613281 754.117188 290.457031 747.210938 290.457031 L 691.878906 290.457031 C 690.3125 290.457031 688.753906 290.964844 687.480469 291.898438 L 663.488281 309.546875 L 663.488281 297.691406 C 663.488281 293.703125 660.164062 290.457031 656.082031 290.457031 L 652.871094 290.457031 C 645.457031 290.457031 639.425781 285.613281 639.425781 279.664062 Z M 753.050781 434.828125 C 759.066406 434.828125 750.640625 458.890625 728.097656 458.890625 L 478.566406 458.890625 C 456.027344 458.890625 447.597656 434.828125 453.613281 434.828125 L 553.179688 434.839844 C 557.515625 437.578125 563.972656 440.84375 570.089844 440.84375 L 636.597656 440.84375 C 643.710938 440.84375 650.21875 438.65625 654.1875 435.015625 C 654.1875 435.015625 651.980469 435.003906 753.050781 434.828125 Z M 544.410156 422.796875 C 549.199219 402.113281 567.917969 386.703125 589.6875 386.703125 L 616.976562 386.703125 C 638.800781 386.703125 657.5625 402.191406 662.292969 422.957031 L 654.320312 422.96875 C 646.167969 422.984375 647.292969 428.8125 636.601562 428.8125 L 570.089844 428.8125 C 563.738281 428.8125 559.710938 422.796875 553.207031 422.796875 Z M 674.605469 422.933594 C 669.695312 395.472656 645.367188 374.671875 616.976562 374.671875 L 589.6875 374.671875 C 561.347656 374.671875 537.042969 395.402344 532.078125 422.796875 L 470.992188 422.796875 L 470.992188 269.429688 C 470.992188 267.695312 472.054688 266.394531 472.996094 266.394531 L 627.390625 266.394531 L 627.390625 279.660156 C 627.390625 291.820312 638.058594 301.789062 651.453125 302.453125 L 651.453125 319.933594 C 651.453125 325.5 657.796875 328.664062 662.242188 325.394531 L 693.382812 302.484375 L 735.667969 302.484375 L 735.667969 422.824219 Z M 674.605469 422.933594 " fill-opacity="1" fill-rule="nonzero"/></g><path fill="#ffffff" d="M 669.503906 230.300781 L 657.472656 230.300781 C 649.523438 230.300781 649.515625 218.269531 657.472656 218.269531 L 669.503906 218.269531 C 677.449219 218.269531 677.460938 230.300781 669.503906 230.300781 Z M 669.503906 230.300781 " fill-opacity="1" fill-rule="nonzero"/><path fill="#ffffff" d="M 741.6875 230.300781 L 687.550781 230.300781 C 679.601562 230.300781 679.589844 218.269531 687.550781 218.269531 L 741.6875 218.269531 C 749.636719 218.269531 749.644531 230.300781 741.6875 230.300781 Z M 741.6875 230.300781 " fill-opacity="1" fill-rule="nonzero"/><path fill="#ffffff" d="M 741.6875 254.363281 L 657.472656 254.363281 C 649.523438 254.363281 649.515625 242.335938 657.472656 242.335938 L 741.6875 242.335938 C 749.636719 242.335938 749.644531 254.363281 741.6875 254.363281 Z M 741.6875 254.363281 " fill-opacity="1" fill-rule="nonzero"/><path fill="#ffffff" d="M 705.59375 278.425781 L 657.472656 278.425781 C 649.523438 278.425781 649.515625 266.394531 657.472656 266.394531 L 705.59375 266.394531 C 713.542969 266.394531 713.554688 278.425781 705.59375 278.425781 Z M 705.59375 278.425781 " fill-opacity="1" fill-rule="nonzero"/></svg>