<svg width="186" height="59" viewBox="0 0 186 59" fill="none" xmlns="http://www.w3.org/2000/svg">
<path d="M57.3257 21.1299L64.8719 39.6913L72.2805 21.1299H77.1959V44.7102H73.4562V27.3642L66.3819 44.7141H63.1142L56.0399 27.3642V44.7141H52.3002V21.1299H57.3257Z" fill="white"/>
<path d="M84.1837 28.3554C85.4538 27.6238 86.9049 27.262 88.5446 27.262C90.208 27.262 91.6709 27.6002 92.941 28.2728C94.2112 28.9454 95.21 29.9012 95.9375 31.1363C96.6689 32.3714 97.0424 33.8188 97.066 35.4826C97.066 35.931 97.0307 36.3912 96.9638 36.8632H83.9635V37.0638C84.0539 38.5703 84.5258 39.7582 85.3791 40.6353C86.2324 41.5124 87.3649 41.949 88.7806 41.949C89.9013 41.949 90.8451 41.6855 91.6079 41.1584C92.3708 40.6314 92.8781 39.884 93.1219 38.9164H96.7593C96.4447 40.6668 95.5953 42.1064 94.2151 43.2274C92.8348 44.3484 91.1125 44.9108 89.0441 44.9108C87.247 44.9108 85.6819 44.545 84.3449 43.8174C83.0079 43.0858 81.9776 42.0592 81.2462 40.7336C80.5148 39.4081 80.153 37.8702 80.153 36.1198C80.153 34.3459 80.5069 32.7922 81.2147 31.4549C81.9265 30.1215 82.9135 29.087 84.1837 28.3554ZM91.8596 31.2543C91.0181 30.5463 89.9564 30.1923 88.6783 30.1923C87.4868 30.1923 86.4605 30.5581 85.5954 31.2858C84.7303 32.0174 84.2309 32.9889 84.0972 34.2004H93.3578C93.2045 32.9456 92.7051 31.9623 91.8596 31.2543Z" fill="white"/>
<path d="M116.732 44.7142H113.566L113.13 42.1221C111.761 43.9865 109.886 44.9187 107.506 44.9187C105.933 44.9187 104.53 44.5647 103.295 43.8567C102.06 43.1487 101.093 42.126 100.397 40.7926C99.7007 39.4553 99.3507 37.8898 99.3507 36.0923C99.3507 34.342 99.7047 32.7962 100.412 31.4588C101.12 30.1215 102.092 29.091 103.326 28.3593C104.561 27.6277 105.953 27.2659 107.502 27.2659C108.761 27.2659 109.862 27.494 110.802 27.9582C111.745 28.4184 112.508 29.0516 113.09 29.8619V21.1299H116.728V44.7142H116.732ZM113.13 36.1552C113.13 34.4246 112.67 33.0282 111.749 31.9623C110.829 30.8964 109.618 30.3614 108.112 30.3614C106.606 30.3614 105.395 30.8964 104.475 31.9623C103.554 33.0282 103.094 34.4049 103.094 36.0884C103.094 37.7954 103.554 39.1839 104.475 40.2498C105.395 41.3158 106.606 41.8507 108.112 41.8507C109.618 41.8507 110.829 41.3236 111.749 40.2656C112.67 39.2114 113.13 37.8426 113.13 36.1552Z" fill="white"/>
<path d="M120.672 21.1299H124.545V41.2764H134.683V44.7141H120.672V21.1299Z" fill="#00F1AB"/>
<path d="M141.317 22.7465C141.317 23.3758 141.104 23.899 140.676 24.312C140.251 24.7289 139.72 24.9334 139.091 24.9334C138.462 24.9334 137.935 24.725 137.506 24.312C137.082 23.895 136.865 23.3758 136.865 22.7465C136.865 22.1172 137.078 21.594 137.506 21.181C137.931 20.7641 138.462 20.5596 139.091 20.5596C139.72 20.5596 140.247 20.768 140.676 21.181C141.1 21.598 141.317 22.1211 141.317 22.7465ZM140.912 27.4665V44.7142H137.274V27.4665H140.912Z" fill="#00F1AB"/>
<path d="M160.511 35.2112V44.7102H156.842V35.4157C156.842 33.7755 156.492 32.5287 155.796 31.6751C155.1 30.8216 154.077 30.3968 152.732 30.3968C151.297 30.3968 150.168 30.8963 149.347 31.8954C148.525 32.8945 148.116 34.2711 148.116 36.0215V44.7141H144.478V27.4665H147.644L148.049 29.7242C149.351 28.084 151.191 27.2659 153.574 27.2659C155.619 27.2659 157.286 27.8952 158.576 29.1539C159.866 30.4086 160.511 32.4264 160.511 35.2112Z" fill="#00F1AB"/>
<path d="M164.266 40.7218C163.535 39.3845 163.173 37.8426 163.173 36.0884C163.173 34.3577 163.538 32.8276 164.266 31.4903C164.993 30.153 166.028 29.1146 167.365 28.3751C168.702 27.6356 170.231 27.262 171.962 27.262C173.692 27.262 175.221 27.6317 176.558 28.3751C177.895 29.1185 178.926 30.153 179.657 31.4903C180.389 32.8276 180.75 34.3577 180.75 36.0884C180.75 37.8387 180.385 39.3845 179.657 40.7218C178.926 42.0592 177.895 43.0897 176.558 43.8213C175.221 44.5529 173.692 44.9148 171.962 44.9148C170.231 44.9148 168.702 44.549 167.365 43.8213C166.028 43.0897 164.993 42.0552 164.266 40.7218ZM177.046 36.0884C177.046 34.4049 176.582 33.0282 175.65 31.9623C174.718 30.8964 173.487 30.3614 171.962 30.3614C170.436 30.3614 169.213 30.8964 168.293 31.9623C167.372 33.0282 166.912 34.4049 166.912 36.0884C166.912 37.7718 167.372 39.1485 168.293 40.2144C169.213 41.2804 170.436 41.8153 171.962 41.8153C173.487 41.8153 174.718 41.2804 175.65 40.2144C176.582 39.1485 177.046 37.7718 177.046 36.0884Z" fill="#00F1AB"/>
<path d="M36.8618 30.4715C33.944 30.4715 31.0026 32.7292 30.7509 37.0834C30.7509 37.1503 30.7273 37.2211 30.7273 37.3116V38.7472C30.7273 39.707 30.4757 40.4582 29.9959 40.9381C29.587 41.3472 29.06 41.5556 28.4702 41.5556C27.4674 41.5556 26.3035 40.9184 26.3035 39.0698C26.3035 36.7648 26.2563 35.0342 26.2366 33.39C26.1894 31.8639 26.1462 30.4007 26.1462 28.556C26.1462 26.3218 25.5524 24.4299 24.412 23.0611C23.3188 21.7631 21.7655 21.0079 20.1493 21.0079C17.2315 21.0079 14.1289 23.5174 14.1289 28.1469V35.1718C12.3515 35.8326 11.0735 37.5672 11.0735 39.6204C11.0735 42.244 13.2166 44.3876 15.8395 44.3876C18.486 44.3876 20.6291 42.244 20.6291 39.6204C20.6291 37.5672 19.3511 35.8326 17.5501 35.1718V28.1469C17.5501 24.3158 20.4679 23.655 21.7891 25.252C22.4065 26.0032 22.725 27.1439 22.725 28.5599C22.725 30.4282 22.7722 31.9347 22.8155 33.4648C22.8391 35.105 22.8823 36.7963 22.8823 39.0737C22.8823 42.9284 25.7569 44.9816 28.4702 44.9816C29.9763 44.9816 31.3644 44.4112 32.4143 43.361C33.2126 42.5626 34.1485 41.1269 34.1485 38.7551V37.6616C34.1485 33.8542 37.1371 33.1462 38.4819 34.629C39.0521 35.2898 39.3471 36.2928 39.3471 37.524V43.4082C39.3471 46.7398 37.6365 48.5845 34.5142 48.5845H11.7145C10.2791 48.5845 9.11517 47.4202 9.11517 45.9846V20.6421C9.11517 19.2064 10.2791 18.0186 11.7145 18.0186H27.7899C28.5882 22.4672 32.4419 25.8656 37.0938 25.9796C37.2079 26.2078 37.3691 26.4359 37.5736 26.6168C38.7572 27.8244 40.6958 27.8244 41.907 26.6168C43.0946 25.4093 43.0946 23.4702 41.907 22.2823C40.6998 21.0748 38.7611 21.0748 37.5736 22.2823C37.4831 22.3728 37.3927 22.4632 37.3219 22.5773C33.8811 22.5537 31.0734 19.7492 31.0301 16.3076V16.2407C31.0301 12.7951 33.7435 10.0378 37.141 9.90018C37.6876 10.7222 38.6235 11.2454 39.6931 11.2454C41.3801 11.2454 42.7485 9.87657 42.7485 8.18918C42.7485 6.47818 41.3801 5.10938 39.6931 5.10938C38.6196 5.10938 37.664 5.65611 37.1174 6.47817C32.3986 6.59224 28.5213 10.0811 27.7702 14.5966H11.7145C8.40735 14.5966 5.69403 17.3106 5.69403 20.6421V45.9806C5.69403 49.3122 8.40735 52.0026 11.7145 52.0026H34.5142C39.5319 52.0026 42.7682 48.6278 42.7682 43.4043V37.52C42.7682 35.4236 42.1744 33.6418 41.034 32.3674C39.9408 31.1362 38.4583 30.4715 36.8618 30.4715ZM15.8395 40.9656C15.0884 40.9656 14.4946 40.3717 14.4946 39.6204C14.4946 38.8692 15.0884 38.2516 15.8395 38.2516C16.5906 38.2516 17.2079 38.8692 17.2079 39.6204C17.2079 40.3717 16.5945 40.9656 15.8395 40.9656Z" fill="url(#paint0_linear_632_367)"/>
<defs>
<linearGradient id="paint0_linear_632_367" x1="3.35712" y1="40.6194" x2="48.7372" y2="24.1065" gradientUnits="userSpaceOnUse">
<stop offset="0.00126202" stop-color="#00F1AB"/>
<stop offset="0.1585" stop-color="#05EEAE"/>
<stop offset="0.3318" stop-color="#12E4B6"/>
<stop offset="0.5128" stop-color="#28D5C3"/>
<stop offset="0.6992" stop-color="#47BFD6"/>
<stop offset="0.8879" stop-color="#6EA3EE"/>
<stop offset="1" stop-color="#8990FF"/>
</linearGradient>
</defs>
</svg>
