<svg xmlns="http://www.w3.org/2000/svg" xmlns:xlink="http://www.w3.org/1999/xlink" width="1640" zoomAndPan="magnify" viewBox="0 0 1230 693.000001" height="924" preserveAspectRatio="xMidYMid meet" version="1.0"><defs><clipPath id="922c6995cd"><path d="M 0.886719 0 L 1229.113281 0 L 1229.113281 692 L 0.886719 692 Z M 0.886719 0 " clip-rule="nonzero"/></clipPath><clipPath id="31cbfdcbcf"><path d="M 510.019531 289.21875 L 613.386719 289.21875 L 613.386719 473.589844 L 510.019531 473.589844 Z M 510.019531 289.21875 " clip-rule="nonzero"/></clipPath><clipPath id="c99434345d"><path d="M 623 289.21875 L 726 289.21875 L 726 473.589844 L 623 473.589844 Z M 623 289.21875 " clip-rule="nonzero"/></clipPath><clipPath id="3bab988555"><path d="M 686.773438 234.140625 L 864.3125 234.140625 L 864.3125 426.683594 L 686.773438 426.683594 Z M 686.773438 234.140625 " clip-rule="nonzero"/></clipPath><clipPath id="6d8848631b"><path d="M 373.046875 234.046875 L 551 234.046875 L 551 427 L 373.046875 427 Z M 373.046875 234.046875 " clip-rule="nonzero"/></clipPath></defs><g clip-path="url(#922c6995cd)"><path fill="#ffffff" d="M 0.886719 0 L 1229.113281 0 L 1229.113281 692 L 0.886719 692 Z M 0.886719 0 " fill-opacity="1" fill-rule="nonzero"/><path fill="#111111" d="M 0.886719 0 L 1229.113281 0 L 1229.113281 692 L 0.886719 692 Z M 0.886719 0 " fill-opacity="1" fill-rule="nonzero"/></g><g clip-path="url(#31cbfdcbcf)"><path fill="#e6e7e8" d="M 602.640625 404.855469 C 602.433594 404.984375 602.234375 405.09375 602.042969 405.1875 C 601.71875 405.363281 601.375 405.554688 600.996094 405.761719 C 600.339844 406.238281 599.105469 406.585938 597.996094 407.082031 C 596.820312 407.515625 595.46875 407.867188 594.039062 408.234375 C 592.578125 408.484375 591.023438 408.867188 589.375 408.9375 C 587.730469 409.152344 586.011719 409.101562 584.257812 409.097656 C 583.375 409.09375 582.503906 408.949219 581.613281 408.875 C 580.71875 408.816406 579.828125 408.707031 578.957031 408.492188 C 578.480469 408.394531 578.003906 408.292969 577.523438 408.199219 C 577.292969 408.050781 577.042969 407.917969 576.753906 407.851562 C 576.753906 407.851562 576.148438 407.714844 575.09375 407.480469 C 574.875 407.421875 574.625 407.375 574.359375 407.335938 C 574.160156 407.273438 573.953125 407.214844 573.753906 407.144531 C 572.878906 406.929688 572.117188 406.5 571.304688 406.164062 C 570.519531 405.789062 569.675781 405.511719 568.972656 405.027344 C 567.507812 404.167969 566.0625 403.328125 564.898438 402.257812 C 563.59375 401.332031 562.617188 400.191406 561.667969 399.15625 C 560.640625 398.179688 560.082031 397.007812 559.394531 396.078125 C 558.691406 395.144531 558.289062 394.226562 557.949219 393.46875 C 557.25 391.941406 556.84375 391.066406 556.84375 391.066406 C 556.84375 391.066406 557.097656 391.996094 557.539062 393.625 C 557.742188 394.449219 558 395.460938 558.542969 396.523438 C 559.074219 397.578125 559.476562 398.925781 560.363281 400.109375 C 561.164062 401.355469 562.011719 402.761719 563.21875 403.988281 C 564.296875 405.355469 565.679688 406.53125 567.136719 407.757812 C 567.261719 407.875 567.40625 407.960938 567.539062 408.066406 C 566.6875 408.335938 565.878906 408.765625 565.027344 409.144531 C 564.128906 409.710938 563.175781 410.234375 562.34375 410.945312 C 561.464844 411.59375 560.710938 412.378906 559.929688 413.132812 C 559.222656 413.953125 558.476562 414.734375 557.890625 415.609375 C 557.257812 416.445312 556.714844 417.320312 556.230469 418.1875 C 555.246094 419.910156 554.550781 421.617188 554.113281 423.125 C 553.90625 423.882812 553.6875 424.558594 553.609375 425.195312 C 553.515625 425.832031 553.375 426.367188 553.386719 426.816406 C 553.34375 427.714844 553.316406 428.226562 553.316406 428.226562 C 553.316406 428.226562 553.421875 427.722656 553.609375 426.84375 C 553.671875 426.390625 553.894531 425.898438 554.078125 425.3125 C 554.238281 424.726562 554.5625 424.101562 554.867188 423.417969 C 555.507812 422.054688 556.4375 420.554688 557.59375 419.105469 C 558.167969 418.371094 558.796875 417.652344 559.5 416.980469 C 560.152344 416.269531 560.945312 415.683594 561.675781 415.058594 C 562.46875 414.5 563.226562 413.925781 564.070312 413.507812 C 564.855469 413.007812 565.714844 412.722656 566.503906 412.375 C 567.324219 412.175781 568.097656 411.84375 568.847656 411.804688 C 569.589844 411.6875 570.285156 411.632812 570.925781 411.699219 C 571.554688 411.671875 572.117188 411.816406 572.609375 411.925781 C 573.101562 411.992188 573.519531 412.121094 573.847656 412.292969 C 574.511719 412.546875 574.882812 412.699219 574.882812 412.699219 L 575.238281 412.835938 C 575.355469 412.878906 575.476562 412.921875 575.605469 412.949219 C 575.808594 412.992188 576.007812 412.964844 576.203125 412.957031 C 576.660156 413.132812 577.109375 413.324219 577.570312 413.5 C 578.519531 413.902344 579.5 414.199219 580.492188 414.449219 C 581.480469 414.699219 582.460938 415.027344 583.457031 415.210938 C 585.441406 415.566406 587.425781 415.953125 589.375 416.035156 C 591.316406 416.269531 593.222656 416.160156 595.039062 416.152344 C 596.851562 416.015625 598.582031 415.855469 600.179688 415.566406 C 601.050781 415.351562 601.859375 415.214844 602.640625 415.039062 L 602.640625 458.546875 C 597.496094 461.640625 592.613281 463.207031 588.085938 463.207031 C 579.820312 463.207031 572.949219 457.609375 569.238281 447.851562 C 569.160156 447.65625 569.046875 447.472656 568.949219 447.289062 C 569.039062 447.179688 569.109375 447.078125 569.210938 446.976562 C 569.726562 446.480469 570.28125 445.949219 570.917969 445.507812 C 571.519531 444.996094 572.203125 444.644531 572.894531 444.21875 C 573.601562 443.878906 574.324219 443.507812 575.078125 443.296875 C 575.828125 443.003906 576.582031 442.9375 577.351562 442.785156 C 578.089844 442.765625 578.859375 442.671875 579.554688 442.8125 C 580.28125 442.859375 580.933594 443.050781 581.554688 443.253906 C 582.203125 443.40625 582.695312 443.757812 583.195312 443.988281 C 583.710938 444.214844 584.078125 444.511719 584.398438 444.761719 C 585.042969 445.25 585.414062 445.539062 585.414062 445.539062 C 585.414062 445.539062 585.164062 445.144531 584.71875 444.445312 C 584.496094 444.09375 584.226562 443.652344 583.804688 443.242188 C 583.394531 442.835938 582.980469 442.261719 582.359375 441.84375 C 581.765625 441.371094 581.097656 440.878906 580.289062 440.519531 C 579.511719 440.054688 578.605469 439.828125 577.648438 439.511719 C 576.699219 439.339844 575.65625 439.085938 574.621094 439.097656 C 573.558594 439.019531 572.507812 439.132812 571.429688 439.238281 C 570.390625 439.425781 569.296875 439.582031 568.300781 439.929688 C 567.269531 440.214844 566.296875 440.609375 565.355469 441.023438 C 563.496094 441.886719 561.8125 442.917969 560.484375 444.023438 C 559.816406 444.566406 559.199219 445.078125 558.625 445.738281 C 558.214844 446.183594 557.800781 446.652344 557.542969 446.964844 C 547.796875 450.433594 539.976562 448.738281 535.960938 442.015625 C 531.800781 435.046875 532.328125 424.1875 537.277344 414.996094 C 537.992188 413.675781 538.097656 412.101562 537.5625 410.699219 C 537.035156 409.292969 535.921875 408.183594 534.515625 407.664062 C 523.765625 403.667969 521.136719 395.445312 520.839844 389.25 C 520.359375 379.617188 525.390625 369.242188 532.601562 364.277344 C 533.054688 364.679688 533.554688 365.082031 534.15625 365.46875 C 535.417969 366.308594 536.699219 367.425781 538.449219 368.125 C 539.28125 368.511719 540.15625 368.910156 541.058594 369.332031 C 541.96875 369.695312 542.980469 369.90625 543.972656 370.195312 C 545.960938 370.863281 548.148438 370.917969 550.335938 371.164062 C 552.53125 371.074219 554.804688 371.152344 556.996094 370.636719 C 558.914062 370.371094 560.757812 369.804688 562.582031 369.210938 C 562.699219 369.214844 562.800781 369.222656 562.9375 369.226562 C 563.992188 369.265625 565.261719 369.355469 566.90625 369.558594 C 568.546875 369.753906 570.402344 370.125 572.34375 370.710938 C 573.273438 371.058594 574.277344 371.378906 575.183594 371.886719 C 576.140625 372.320312 577.007812 372.925781 577.859375 373.566406 C 578.703125 374.214844 579.433594 374.996094 580.117188 375.796875 C 580.730469 376.65625 581.367188 377.511719 581.78125 378.460938 C 582.300781 379.359375 582.566406 380.339844 582.914062 381.246094 C 583.1875 382.164062 583.355469 383.078125 583.5625 383.90625 C 583.804688 385.59375 583.992188 387.023438 583.992188 388.03125 C 584.035156 389.042969 584.0625 389.621094 584.0625 389.621094 C 584.0625 389.621094 584.113281 389.046875 584.210938 388.039062 C 584.351562 387.03125 584.375 385.582031 584.375 383.816406 C 584.285156 382.945312 584.238281 381.980469 584.085938 380.972656 C 583.867188 379.976562 583.71875 378.894531 583.300781 377.828125 C 582.988281 376.738281 582.429688 375.6875 581.867188 374.605469 C 581.214844 373.578125 580.496094 372.558594 579.617188 371.660156 C 578.746094 370.769531 577.804688 369.910156 576.78125 369.25 C 575.78125 368.503906 574.710938 367.976562 573.683594 367.425781 C 572.332031 366.792969 571.042969 366.308594 569.800781 365.902344 C 570.617188 365.417969 571.4375 364.976562 572.195312 364.449219 C 573.039062 363.824219 573.875 363.210938 574.695312 362.605469 C 576.300781 361.359375 577.726562 359.996094 579.023438 358.695312 C 580.230469 357.28125 581.457031 356.0625 582.308594 354.6875 C 583.242188 353.382812 584.0625 352.175781 584.605469 350.976562 C 585.195312 349.808594 585.757812 348.847656 585.996094 347.964844 C 586.59375 346.238281 586.941406 345.253906 586.941406 345.253906 C 586.941406 345.253906 586.445312 346.171875 585.585938 347.789062 C 585.214844 348.628906 584.507812 349.484375 583.78125 350.492188 C 583.105469 351.523438 582.140625 352.546875 581.066406 353.644531 C 580.085938 354.808594 578.710938 355.773438 577.40625 356.902344 C 576.007812 357.925781 574.503906 358.96875 572.867188 359.875 C 572.035156 360.308594 571.199219 360.742188 570.339844 361.1875 C 569.484375 361.605469 568.546875 361.914062 567.65625 362.285156 C 566.757812 362.667969 565.839844 362.980469 564.882812 363.199219 C 563.941406 363.433594 563.015625 363.75 562.058594 363.925781 C 561.949219 363.941406 561.839844 363.953125 561.726562 363.972656 C 561.667969 363.96875 561.621094 363.957031 561.578125 363.953125 C 561.191406 363.941406 560.828125 364.015625 560.496094 364.152344 C 559.109375 364.363281 557.742188 364.542969 556.386719 364.503906 C 554.523438 364.664062 552.746094 364.265625 551.0625 364.101562 C 549.429688 363.609375 547.8125 363.375 546.484375 362.621094 C 545.8125 362.292969 545.121094 362.058594 544.527344 361.699219 C 543.953125 361.304688 543.40625 360.925781 542.871094 360.558594 C 541.753906 359.949219 541.015625 358.964844 540.261719 358.289062 C 539.476562 357.636719 538.964844 356.875 538.542969 356.246094 C 537.671875 355.050781 537.175781 354.363281 537.175781 354.363281 L 536.742188 353.757812 C 536.585938 353.5625 536.425781 353.371094 536.246094 353.1875 C 535.800781 352.734375 535.28125 352.394531 534.738281 352.140625 C 529.570312 343.875 530.660156 334.417969 533.707031 327.898438 C 537.640625 319.484375 545.15625 314.257812 553.316406 314.257812 C 555.585938 314.257812 557.917969 314.683594 560.273438 315.441406 C 560.179688 316.015625 560.09375 316.605469 559.996094 317.1875 C 559.890625 318.355469 559.75 319.53125 559.777344 320.765625 C 559.742188 321.96875 559.886719 323.21875 560.019531 324.433594 C 560.222656 325.652344 560.46875 326.851562 560.855469 327.992188 C 561.207031 329.128906 561.675781 330.210938 562.183594 331.207031 C 562.707031 332.191406 563.253906 333.101562 563.875 333.898438 C 564.421875 334.730469 565.105469 335.386719 565.667969 336.027344 C 566.222656 336.664062 566.875 337.148438 567.371094 337.609375 C 567.871094 338.085938 568.355469 338.394531 568.746094 338.679688 C 569.527344 339.234375 569.976562 339.554688 569.976562 339.554688 C 569.976562 339.554688 569.644531 339.117188 569.054688 338.359375 C 568.769531 337.976562 568.386719 337.523438 568.070312 336.953125 C 567.738281 336.375 567.304688 335.8125 566.984375 335.078125 C 566.65625 334.347656 566.242188 333.617188 565.992188 332.753906 C 565.667969 331.925781 565.449219 331.027344 565.277344 330.101562 C 565.113281 329.175781 565.003906 328.21875 565.007812 327.25 C 564.984375 326.289062 565.085938 325.316406 565.21875 324.363281 C 565.820312 320.535156 567.644531 317.085938 569.320312 314.722656 C 570.132812 313.53125 571.207031 309.210938 573.617188 306.796875 C 577.496094 301.769531 582.203125 299.707031 586.839844 299.707031 C 592.992188 299.707031 599.421875 304.292969 602.640625 307.179688 Z M 586.839844 289.324219 C 580.527344 289.324219 572.007812 291.976562 564.914062 303.535156 C 564.378906 304.011719 563.929688 304.597656 563.621094 305.292969 C 563.621094 305.292969 563.578125 305.394531 563.507812 305.542969 C 560.113281 304.4375 556.699219 303.871094 553.316406 303.871094 C 541.078125 303.871094 529.960938 311.394531 524.3125 323.496094 C 519.136719 334.554688 519.621094 346.804688 525.34375 356.6875 C 515.886719 363.941406 509.839844 376.945312 510.472656 389.765625 C 511.011719 400.855469 516.53125 409.820312 525.828125 415.054688 C 521.414062 426.300781 521.777344 438.511719 527.046875 447.347656 C 533.554688 458.238281 546.261719 461.9375 560.792969 456.824219 C 561.164062 456.808594 561.519531 456.761719 561.871094 456.671875 C 567.617188 467.363281 577.109375 473.589844 588.085938 473.589844 C 595.382812 473.589844 603.007812 470.933594 610.738281 465.695312 C 612.167969 464.71875 613.023438 463.117188 613.023438 461.394531 L 613.023438 304.984375 C 613.023438 303.664062 612.515625 302.394531 611.613281 301.429688 C 611.152344 300.933594 600.113281 289.324219 586.839844 289.324219 " fill-opacity="1" fill-rule="nonzero"/></g><g clip-path="url(#c99434345d)"><path fill="#e6e7e8" d="M 704.78125 406.257812 C 703.535156 405.417969 702.261719 404.328125 700.535156 403.632812 C 699.699219 403.25 698.828125 402.847656 697.921875 402.429688 C 697.011719 402.066406 696.003906 401.859375 695.003906 401.570312 C 693.023438 400.894531 690.832031 400.84375 688.644531 400.597656 C 686.457031 400.683594 684.175781 400.605469 681.980469 401.132812 C 679.796875 401.425781 677.703125 402.125 675.632812 402.800781 C 675.378906 402.707031 675.113281 402.609375 674.832031 402.609375 C 674.832031 402.609375 674.25 402.574219 673.242188 402.53125 C 672.195312 402.496094 670.917969 402.40625 669.277344 402.203125 C 667.632812 402.011719 665.773438 401.636719 663.839844 401.050781 C 662.910156 400.703125 661.902344 400.382812 660.996094 399.878906 C 660.03125 399.441406 659.167969 398.832031 658.316406 398.199219 C 657.476562 397.546875 656.753906 396.777344 656.054688 395.96875 C 655.453125 395.105469 654.804688 394.253906 654.394531 393.304688 C 653.875 392.402344 653.609375 391.425781 653.265625 390.515625 C 652.988281 389.589844 652.820312 388.6875 652.613281 387.859375 C 652.378906 386.167969 652.191406 384.734375 652.191406 383.730469 C 652.144531 382.71875 652.121094 382.140625 652.121094 382.140625 C 652.121094 382.140625 652.0625 382.714844 651.972656 383.722656 C 651.828125 384.734375 651.808594 386.183594 651.808594 387.945312 C 651.902344 388.816406 651.9375 389.785156 652.09375 390.789062 C 652.316406 391.789062 652.460938 392.867188 652.882812 393.933594 C 653.191406 395.03125 653.75 396.078125 654.316406 397.152344 C 654.960938 398.1875 655.6875 399.207031 656.570312 400.105469 C 657.433594 400.988281 658.371094 401.851562 659.398438 402.515625 C 660.398438 403.261719 661.472656 403.785156 662.5 404.335938 C 664.527344 405.289062 666.488281 405.964844 668.207031 406.433594 C 667.71875 406.714844 667.242188 407 666.789062 407.3125 C 665.949219 407.9375 665.109375 408.554688 664.289062 409.15625 C 662.691406 410.402344 661.257812 411.769531 659.964844 413.074219 C 658.757812 414.484375 657.519531 415.699219 656.675781 417.078125 C 655.742188 418.382812 654.925781 419.585938 654.375 420.789062 C 653.789062 421.949219 653.222656 422.914062 652.984375 423.796875 C 652.386719 425.523438 652.046875 426.511719 652.046875 426.511719 C 652.046875 426.511719 652.539062 425.59375 653.394531 423.980469 C 653.769531 423.136719 654.484375 422.277344 655.207031 421.269531 C 655.875 420.238281 656.84375 419.214844 657.917969 418.117188 C 658.898438 416.957031 660.273438 415.988281 661.570312 414.859375 C 662.976562 413.839844 664.476562 412.792969 666.117188 411.886719 C 666.941406 411.453125 667.792969 411.015625 668.648438 410.578125 C 669.5 410.152344 670.4375 409.851562 671.328125 409.476562 C 672.21875 409.097656 673.144531 408.78125 674.105469 408.5625 C 675.046875 408.320312 675.972656 408.003906 676.925781 407.835938 C 678.84375 407.539062 680.726562 407.203125 682.59375 407.257812 C 684.457031 407.09375 686.242188 407.496094 687.921875 407.65625 C 689.554688 408.152344 691.164062 408.386719 692.488281 409.140625 C 693.171875 409.472656 693.863281 409.691406 694.453125 410.058594 C 695.027344 410.453125 695.578125 410.832031 696.105469 411.195312 C 697.042969 411.707031 697.695312 412.445312 698.324219 413.082031 C 698.398438 413.746094 698.578125 414.390625 698.902344 414.996094 C 703.851562 424.1875 704.378906 435.046875 700.210938 442.015625 C 695.683594 449.621094 686.269531 450.777344 674.707031 445.328125 C 674.664062 444.851562 674.613281 444.367188 674.523438 443.898438 C 674.277344 443.066406 674.03125 442.238281 673.789062 441.417969 C 673.554688 440.632812 673.039062 439.929688 672.6875 439.25 C 672.496094 438.917969 672.3125 438.59375 672.128906 438.277344 C 671.910156 437.96875 671.632812 437.699219 671.40625 437.425781 C 670.933594 436.921875 670.484375 436.445312 670.078125 436.003906 C 669.691406 435.558594 669.214844 435.375 668.855469 435.09375 C 668.492188 434.84375 668.160156 434.621094 667.898438 434.4375 C 667.363281 434.078125 667.054688 433.871094 667.054688 433.871094 C 667.054688 433.871094 667.246094 434.1875 667.570312 434.746094 C 667.730469 435.023438 667.925781 435.359375 668.160156 435.753906 C 668.351562 436.144531 668.722656 436.546875 668.847656 437.070312 C 668.996094 437.554688 669.152344 438.078125 669.316406 438.632812 C 669.386719 438.902344 669.488281 439.148438 669.535156 439.433594 C 669.558594 439.738281 669.578125 440.042969 669.597656 440.351562 C 669.597656 440.96875 669.753906 441.535156 669.628906 442.164062 C 669.53125 442.757812 669.433594 443.363281 669.335938 443.964844 C 669.183594 444.492188 668.097656 450.089844 662.386719 455.90625 C 658.617188 460.589844 653.691406 463.207031 648.097656 463.207031 C 643.574219 463.207031 638.683594 461.640625 633.539062 458.546875 L 633.539062 364.101562 C 633.742188 363.96875 633.949219 363.863281 634.132812 363.765625 C 634.457031 363.59375 634.804688 363.398438 635.183594 363.191406 C 635.835938 362.722656 637.074219 362.375 638.179688 361.875 C 639.359375 361.445312 640.714844 361.089844 642.140625 360.71875 C 643.605469 360.472656 645.15625 360.09375 646.808594 360.019531 C 648.449219 359.800781 650.164062 359.851562 651.925781 359.859375 C 652.804688 359.863281 653.675781 360.011719 654.5625 360.074219 C 655.460938 360.144531 656.355469 360.25 657.222656 360.460938 C 658.09375 360.644531 659 360.789062 659.867188 361.003906 C 660.71875 361.273438 661.570312 361.542969 662.421875 361.804688 C 663.296875 362.023438 664.058594 362.460938 664.875 362.792969 C 665.660156 363.171875 666.511719 363.441406 667.203125 363.925781 C 668.667969 364.789062 670.113281 365.628906 671.28125 366.695312 C 672.582031 367.625 673.558594 368.765625 674.507812 369.800781 C 675.542969 370.777344 676.101562 371.945312 676.785156 372.878906 C 677.488281 373.808594 677.894531 374.730469 678.226562 375.488281 C 678.9375 377.019531 679.332031 377.886719 679.332031 377.886719 C 679.332031 377.886719 679.082031 376.957031 678.640625 375.332031 C 678.4375 374.507812 678.179688 373.496094 677.632812 372.441406 C 677.109375 371.375 676.703125 370.039062 675.8125 368.84375 C 675.015625 367.597656 674.167969 366.199219 672.960938 364.96875 C 671.878906 363.605469 670.5 362.425781 669.039062 361.199219 C 668.824219 360.992188 668.578125 360.824219 668.332031 360.648438 C 668.636719 360.558594 668.945312 360.476562 669.253906 360.363281 C 670.230469 360.09375 671.128906 359.527344 672.082031 359.066406 C 672.960938 358.46875 673.902344 357.921875 674.707031 357.179688 C 675.566406 356.515625 676.300781 355.703125 677.054688 354.921875 C 677.738281 354.085938 678.460938 353.289062 679.011719 352.386719 C 679.625 351.527344 680.140625 350.640625 680.601562 349.757812 C 681.523438 348.003906 682.171875 346.277344 682.570312 344.761719 C 682.75 343.996094 682.949219 343.3125 683.007812 342.667969 C 683.082031 342.035156 683.203125 341.496094 683.179688 341.046875 C 683.199219 340.148438 683.203125 339.640625 683.203125 339.640625 C 683.203125 339.640625 683.113281 340.144531 682.960938 341.023438 C 682.910156 341.480469 682.699219 341.980469 682.539062 342.570312 C 682.390625 343.160156 682.085938 343.796875 681.804688 344.492188 C 681.207031 345.875 680.324219 347.40625 679.203125 348.878906 C 678.652344 349.632812 678.046875 350.371094 677.371094 351.058594 C 676.742188 351.796875 675.964844 352.414062 675.25 353.050781 C 674.476562 353.628906 673.730469 354.234375 672.910156 354.679688 C 672.136719 355.203125 671.28125 355.511719 670.511719 355.882812 C 669.691406 356.113281 668.933594 356.453125 668.183594 356.519531 C 667.4375 356.664062 666.75 356.742188 666.113281 356.691406 C 665.476562 356.734375 658.972656 355.601562 658.605469 355.457031 C 657.660156 355.058594 656.679688 354.757812 655.6875 354.511719 C 654.703125 354.257812 653.722656 353.925781 652.722656 353.746094 C 650.730469 353.390625 648.757812 353.007812 646.808594 352.914062 C 644.859375 352.6875 642.953125 352.796875 641.140625 352.804688 C 639.328125 352.941406 637.597656 353.09375 636 353.390625 C 635.125 353.601562 634.320312 353.738281 633.539062 353.914062 L 633.539062 307.179688 C 636.769531 304.289062 643.191406 299.707031 649.339844 299.707031 C 655.578125 299.707031 660.921875 304.625 665.21875 314.328125 C 665.53125 315.042969 666.023438 315.65625 666.601562 316.15625 C 666.621094 316.308594 666.65625 316.4375 666.675781 316.59375 C 666.722656 317.3125 666.773438 318.074219 666.707031 318.84375 C 666.707031 319.636719 666.539062 320.390625 666.425781 321.191406 C 666.230469 321.941406 666.050781 322.746094 665.722656 323.453125 C 665.472656 324.222656 665.035156 324.84375 664.664062 325.527344 C 664.199219 326.101562 663.773438 326.765625 663.226562 327.199219 C 662.722656 327.734375 662.148438 328.113281 661.597656 328.453125 C 661.0625 328.855469 660.480469 329.003906 659.980469 329.238281 C 659.484375 329.480469 659.011719 329.578125 658.617188 329.660156 C 657.828125 329.84375 657.371094 329.945312 657.371094 329.945312 C 657.371094 329.945312 657.835938 330 658.652344 330.105469 C 659.070312 330.160156 659.574219 330.242188 660.164062 330.179688 C 660.746094 330.128906 661.449219 330.179688 662.164062 329.96875 C 662.898438 329.820312 663.710938 329.625 664.507812 329.238281 C 665.359375 328.9375 666.121094 328.390625 666.96875 327.859375 C 667.71875 327.242188 668.578125 326.605469 669.234375 325.800781 C 669.976562 325.035156 670.566406 324.160156 671.175781 323.265625 C 671.707031 322.347656 672.28125 321.40625 672.660156 320.421875 C 673.105469 319.449219 673.429688 318.453125 673.710938 317.460938 C 673.835938 317.011719 673.894531 316.582031 673.988281 316.136719 C 677 314.914062 679.96875 314.257812 682.863281 314.257812 C 691.019531 314.257812 698.539062 319.484375 702.46875 327.898438 C 705.863281 335.144531 706.851562 346.039062 699.488281 354.863281 C 698.464844 356.085938 698.066406 357.714844 698.390625 359.277344 C 698.726562 360.835938 699.765625 362.160156 701.195312 362.855469 C 709.660156 366.984375 715.867188 378.578125 715.34375 389.25 C 715.066406 394.792969 712.925781 401.953125 704.78125 406.257812 Z M 710.832031 356.6875 C 716.5625 346.804688 717.042969 334.554688 711.871094 323.496094 C 706.210938 311.394531 695.097656 303.871094 682.863281 303.871094 C 679.8125 303.871094 674.953125 304.972656 671.878906 305.871094 C 671.765625 305.558594 670.289062 302.015625 670.289062 302.015625 C 663.390625 291.761719 655.359375 289.324219 649.339844 289.324219 C 636.070312 289.324219 625.03125 300.933594 624.5625 301.429688 C 623.664062 302.386719 623.160156 303.664062 623.160156 304.984375 L 623.160156 461.394531 C 623.160156 463.117188 624.015625 464.726562 625.441406 465.695312 C 633.175781 470.933594 640.804688 473.589844 648.097656 473.589844 C 659.125 473.589844 668.671875 467.296875 674.410156 456.488281 C 689.347656 462.121094 702.480469 458.480469 709.128906 447.347656 C 714.0625 439.085938 714.640625 427.875 711.089844 417.257812 C 711.089844 417.257812 710.503906 416.0625 710.371094 415.035156 C 718.882812 409.710938 725.1875 400.328125 725.714844 389.765625 C 726.34375 376.945312 720.292969 363.941406 710.832031 356.6875 " fill-opacity="1" fill-rule="nonzero"/></g><g clip-path="url(#3bab988555)"><path fill="#e6e7e8" d="M 714.558594 246.789062 C 714.53125 246.761719 714.542969 246.789062 714.550781 246.792969 C 714.582031 246.796875 714.519531 246.757812 714.628906 246.757812 C 714.601562 246.769531 714.542969 246.785156 714.558594 246.789062 Z M 703.101562 242.429688 L 703.042969 242.523438 C 702.773438 243.035156 702.921875 242.625 703.140625 242.332031 Z M 711.710938 286.082031 C 711.710938 286.078125 711.722656 286.070312 711.722656 286.0625 C 711.652344 286.199219 711.625 286.238281 711.710938 286.082031 Z M 713.894531 285.5 C 714.003906 285.558594 713.933594 285.53125 713.832031 285.484375 L 713.734375 285.453125 C 713.785156 285.46875 713.847656 285.476562 713.894531 285.5 Z M 722.011719 290.734375 L 722.082031 290.617188 C 722.128906 290.527344 722.121094 290.558594 722.023438 290.730469 C 722.011719 290.757812 721.984375 290.777344 721.96875 290.804688 Z M 863.394531 380.105469 C 862.222656 377.230469 861.34375 374.476562 860.964844 372.269531 L 859.300781 363.898438 L 858.777344 361.582031 L 857.992188 359.128906 L 857.585938 357.910156 L 857.535156 357.753906 L 857.410156 357.464844 L 857.300781 357.214844 L 857.082031 356.71875 L 856.214844 354.742188 C 855.023438 352.101562 853.972656 349.484375 852.640625 346.839844 L 848.4375 338.851562 L 847.910156 337.851562 L 847.234375 336.726562 L 846.109375 334.882812 L 843.863281 331.199219 C 842.53125 328.757812 840.476562 326.222656 838.65625 323.730469 L 835.851562 319.984375 L 832.707031 316.605469 C 830.550781 314.40625 828.632812 311.972656 826.125 310.113281 L 819.125 304.378906 L 815.699219 301.761719 C 814.542969 300.882812 813.378906 300.007812 812.476562 299.148438 L 809.554688 296.5625 L 808.820312 295.921875 C 808.757812 295.871094 808.453125 295.589844 808.578125 295.722656 L 808.199219 295.335938 L 806.699219 293.789062 L 794.675781 281.390625 L 791.675781 278.296875 L 791.046875 277.652344 C 791.046875 277.648438 791.042969 277.648438 791.007812 277.605469 L 790.917969 277.503906 L 790.734375 277.308594 L 790.371094 276.910156 L 788.90625 275.320312 C 787.011719 273.207031 784.894531 271.058594 783.277344 268.984375 L 780.691406 265.863281 L 779.398438 264.304688 L 777.964844 262.492188 C 777.03125 261.335938 776.300781 260.277344 775.191406 259.046875 L 771.582031 255.304688 L 771.128906 254.839844 L 770.898438 254.609375 C 771.144531 254.800781 770.433594 254.214844 770.464844 254.246094 L 770.355469 254.164062 L 769.496094 253.515625 L 767.777344 252.210938 C 766.542969 251.347656 765.671875 250.480469 764.140625 249.609375 C 761.28125 247.917969 758.324219 246.109375 755.609375 244.945312 C 752.835938 243.566406 750.09375 242.433594 747.351562 241.316406 L 746.320312 240.894531 L 745.808594 240.679688 L 744.992188 240.394531 L 742.949219 239.71875 L 738.851562 238.359375 C 736.1875 237.402344 733.109375 236.742188 730.257812 235.929688 L 728.078125 235.34375 L 727.347656 235.164062 L 727.078125 235.117188 L 726.550781 235.019531 L 725.492188 234.828125 L 724.425781 234.636719 L 723.117188 234.5 L 721.800781 234.375 L 721.140625 234.316406 L 720.808594 234.285156 L 720.171875 234.25 L 720.035156 234.257812 C 719.394531 234.285156 718.363281 234.300781 718.269531 234.328125 L 718.042969 234.363281 L 717.929688 234.386719 L 717.875 234.398438 L 717.496094 234.355469 L 716.421875 234.222656 C 716.226562 234.179688 715.328125 234.140625 714.648438 234.144531 C 713.933594 234.140625 713.230469 234.167969 712.5 234.320312 C 711.121094 234.507812 709.457031 235.109375 708.097656 236 C 706.660156 236.933594 705.679688 238.042969 704.855469 239.148438 C 704.183594 240.183594 703.570312 241.257812 703.222656 242.152344 L 703.171875 242.269531 L 702.019531 243.320312 L 700.4375 244.738281 L 699.660156 245.410156 L 698.691406 246.328125 C 698.058594 246.882812 697.324219 247.734375 696.628906 248.597656 L 696.371094 248.914062 L 696.246094 249.074219 C 696.386719 248.851562 695.90625 249.5625 695.933594 249.53125 L 695.648438 249.988281 L 695.09375 250.910156 C 694.398438 251.9375 693.398438 254.054688 692.84375 255.078125 C 692.550781 255.601562 692.261719 256.21875 691.984375 256.667969 C 691.722656 257.042969 691.472656 257.421875 691.234375 257.816406 L 689.800781 259.820312 C 689.25 260.722656 688.558594 261.90625 688.125 262.976562 C 687.289062 265.105469 686.789062 267.65625 687.058594 270.03125 C 687.117188 271.242188 687.445312 272.269531 687.691406 273.371094 C 688.042969 274.316406 688.386719 275.34375 688.804688 276.183594 L 689.445312 277.425781 L 689.773438 278.046875 L 690.0625 278.527344 L 690.136719 278.640625 L 690.289062 278.863281 L 691.492188 280.652344 L 692.699219 282.445312 C 692.914062 282.746094 693.082031 283.03125 693.320312 283.347656 L 694.1875 284.351562 L 697.722656 288.304688 C 700.332031 290.457031 702.859375 292.726562 705.898438 294.199219 L 708.097656 295.421875 L 708.378906 295.574219 L 708.511719 295.648438 C 708.757812 295.757812 708.160156 295.511719 709.101562 295.910156 L 709.605469 296.097656 L 709.859375 296.1875 C 709.917969 296.210938 710.011719 296.25 710.304688 296.328125 C 710.773438 296.457031 711.257812 296.558594 711.734375 296.640625 C 712.71875 296.808594 713.539062 296.742188 714.449219 296.671875 C 715.375 296.492188 716.3125 296.292969 717.15625 295.84375 C 718.917969 295.035156 720.066406 293.757812 720.949219 292.554688 L 721.199219 292.566406 C 721.871094 292.617188 722.703125 292.636719 723.539062 292.648438 C 726.820312 292.699219 730.101562 292.542969 733.511719 291.675781 C 735.191406 291.21875 736.886719 290.738281 738.484375 289.972656 C 739.296875 289.617188 740.109375 289.265625 740.855469 288.792969 L 742.785156 287.65625 L 743.234375 287.398438 C 743.242188 287.410156 743.246094 287.414062 743.253906 287.410156 C 743.183594 287.410156 743.492188 287.328125 743.601562 287.273438 C 743.910156 287.183594 744.269531 287.101562 744.4375 287.097656 C 744.476562 287.09375 744.484375 287.09375 744.507812 287.085938 L 745.992188 287.839844 C 747.175781 288.523438 747.945312 288.941406 748.964844 289.707031 C 749.96875 290.390625 750.847656 291.167969 751.695312 291.972656 L 751.859375 292.121094 L 751.941406 292.1875 L 752.109375 292.398438 L 752.792969 293.238281 L 754.15625 294.90625 C 755.03125 296.019531 756.089844 297.152344 756.671875 298.226562 C 759.398438 302.277344 762.320312 307.566406 765.277344 312.457031 L 769.097656 319.828125 L 770.054688 321.675781 L 770.535156 322.59375 L 770.652344 322.828125 L 770.714844 322.945312 C 770.699219 322.890625 770.773438 323.078125 770.75 323.015625 L 770.855469 323.304688 C 771.28125 324.625 771.941406 326.097656 772.183594 327.289062 C 772.78125 329.578125 773.28125 332.363281 773.84375 335.269531 C 774.414062 338.246094 775.054688 340.984375 775.675781 343.808594 L 778.449219 355.949219 L 778.234375 355.789062 L 776.554688 354.496094 C 775.375 353.660156 774.449219 352.714844 773.058594 351.980469 L 769.042969 349.761719 C 767.734375 348.945312 766.3125 348.503906 764.914062 348.003906 C 763.507812 347.527344 762.132812 346.972656 760.710938 346.597656 L 756.355469 345.796875 C 754.921875 345.453125 753.460938 345.394531 751.992188 345.367188 C 750.53125 345.335938 749.070312 345.230469 747.625 345.265625 L 743.285156 345.714844 C 741.839844 345.796875 740.429688 346.125 739.03125 346.484375 C 737.632812 346.828125 736.226562 347.136719 734.851562 347.550781 L 730.839844 349.097656 C 729.496094 349.582031 728.226562 350.167969 726.910156 350.621094 C 725.625 351.015625 724.246094 351.351562 722.867188 351.308594 C 721.488281 351.371094 720.066406 351.089844 718.714844 350.75 C 720.050781 351.230469 721.394531 351.652344 722.847656 351.734375 C 724.28125 351.921875 725.726562 351.730469 727.164062 351.441406 C 728.558594 351.113281 729.917969 350.648438 731.269531 350.308594 L 735.300781 349.207031 C 736.660156 348.941406 738.046875 348.808594 739.40625 348.582031 C 740.769531 348.347656 742.128906 348.144531 743.515625 348.191406 L 747.628906 348.109375 C 748.988281 348.1875 750.34375 348.414062 751.695312 348.554688 C 753.054688 348.683594 754.394531 348.851562 755.691406 349.285156 L 759.597656 350.347656 C 760.863281 350.796875 762.066406 351.421875 763.304688 351.929688 C 764.53125 352.464844 765.792969 352.945312 766.828125 353.722656 L 770.105469 355.800781 C 771.207031 356.425781 772.234375 357.589844 773.300781 358.453125 L 774.882812 359.859375 L 775.675781 360.558594 C 775.761719 360.632812 776.046875 360.898438 775.964844 360.804688 C 776.242188 361.023438 776.542969 361.234375 776.847656 361.429688 C 777.523438 361.882812 778.015625 362.011719 778.492188 362.144531 L 779.234375 362.347656 L 779.773438 362.449219 C 780.570312 362.589844 781.015625 362.734375 781.558594 362.855469 L 785.808594 363.828125 L 785.128906 359.554688 L 779.625 325.050781 C 779.3125 323.417969 778.839844 322.21875 778.449219 320.785156 L 778.296875 320.265625 L 778.140625 319.871094 L 778.089844 319.742188 L 777.972656 319.488281 L 777.511719 318.464844 L 776.597656 316.425781 L 772.898438 308.246094 C 770.167969 303.136719 767.738281 298.21875 764.242188 292.582031 C 763.433594 291.117188 762.542969 290.113281 761.679688 288.929688 L 759.734375 286.339844 L 759.410156 285.910156 C 759.445312 285.933594 758.867188 285.277344 759.054688 285.5 L 758.945312 285.386719 L 758.71875 285.160156 C 757.527344 283.921875 756.285156 282.757812 754.949219 281.753906 C 753.722656 280.726562 752.003906 279.667969 750.726562 278.894531 L 748.839844 277.84375 C 747.125 276.96875 745.414062 276.761719 744.269531 276.800781 C 743.003906 276.804688 741.933594 277 740.855469 277.261719 C 740.285156 277.445312 739.886719 277.511719 739.164062 277.820312 L 738.191406 278.25 L 737.691406 278.511719 L 735.867188 279.5 C 735.390625 279.796875 734.863281 279.976562 734.34375 280.179688 C 733.332031 280.628906 732.226562 280.871094 731.125 281.136719 C 728.929688 281.617188 726.402344 281.652344 723.949219 281.574219 C 723.347656 281.550781 722.738281 281.53125 721.984375 281.457031 L 720.90625 281.367188 L 719.609375 281.277344 L 718.613281 281.257812 C 718.160156 281.277344 717.441406 281.40625 716.871094 281.554688 C 715.914062 281.644531 713.917969 282.835938 712.871094 284.21875 C 712.695312 284.4375 712.632812 284.535156 712.636719 284.53125 L 712.5625 284.644531 L 712.492188 284.761719 L 711.589844 284.21875 C 709.417969 283.15625 707.734375 281.429688 705.898438 279.9375 C 705.191406 279.074219 704.46875 278.234375 703.730469 277.410156 L 703.164062 276.796875 C 702.972656 276.539062 702.777344 276.199219 702.585938 275.910156 L 701.421875 274.09375 L 700.257812 272.273438 L 700.222656 272.214844 C 700.210938 272.199219 700.222656 272.214844 700.203125 272.179688 L 700.039062 271.839844 L 699.699219 271.152344 C 699.488281 270.703125 699.425781 270.34375 699.25 269.945312 C 699.246094 269.636719 699.078125 269.285156 699.121094 269.050781 C 699.0625 268.554688 699.207031 268.210938 699.394531 267.664062 C 699.527344 267.421875 699.578125 267.359375 699.730469 267.011719 L 700.832031 265.519531 L 702.53125 263.121094 C 703.019531 262.351562 703.363281 261.671875 703.777344 260.941406 C 704.648438 259.464844 704.78125 258.914062 705.667969 257.53125 L 706.234375 256.617188 L 706.382812 256.375 L 706.414062 256.347656 L 706.503906 256.25 C 706.730469 256.011719 706.902344 255.742188 707.359375 255.351562 L 707.960938 254.789062 L 708.820312 254.050781 L 710.464844 252.605469 L 711.226562 251.914062 L 711.710938 251.480469 L 711.972656 251.234375 C 712.046875 251.171875 712.140625 251.089844 712.375 250.839844 C 712.757812 250.429688 713.125 249.988281 713.460938 249.53125 C 713.886719 248.933594 713.8125 249 713.945312 248.785156 L 714.089844 248.554688 C 714.289062 248.136719 713.71875 249.339844 714.558594 247.582031 L 714.597656 247.511719 L 714.726562 247.234375 C 714.800781 247.046875 714.867188 246.910156 714.933594 246.789062 L 715.992188 246.929688 C 715.933594 246.917969 716.328125 246.976562 715.890625 246.90625 L 716.101562 246.917969 L 716.523438 246.9375 L 717.386719 246.96875 C 718.695312 247.007812 719.109375 246.953125 719.875 246.945312 L 719.894531 246.949219 L 720.308594 246.980469 L 721.140625 247.050781 L 721.980469 247.117188 L 723.042969 247.316406 L 724.683594 247.625 L 726.671875 248.171875 C 729.34375 248.960938 731.914062 249.472656 734.667969 250.480469 L 738.75 251.871094 L 740.792969 252.566406 L 741.050781 252.65625 L 741.105469 252.675781 L 741.484375 252.835938 L 742.445312 253.242188 C 747.628906 255.332031 752.621094 257.792969 756.574219 260.210938 C 757.082031 260.453125 757.648438 260.84375 758.234375 261.300781 L 759.964844 262.59375 L 761.703125 263.875 L 762.445312 264.433594 L 762.582031 264.578125 L 762.878906 264.898438 L 765.285156 267.339844 C 766.128906 268.222656 767.0625 269.519531 767.945312 270.589844 L 769.207031 272.160156 L 770.675781 273.914062 L 773.625 277.417969 C 775.59375 279.851562 777.554688 281.777344 779.515625 283.933594 L 780.984375 285.511719 L 781.894531 286.488281 L 785.683594 290.335938 L 791.742188 296.484375 L 797.800781 302.628906 L 799.308594 304.167969 L 799.691406 304.554688 L 800.257812 305.0625 L 801.15625 305.839844 L 804.734375 308.933594 C 805.941406 310.03125 807.105469 310.863281 808.261719 311.695312 L 811.75 314.234375 L 812.761719 314.980469 L 813.539062 315.601562 L 815.097656 316.835938 L 818.226562 319.289062 C 820.429688 320.789062 822.125 322.917969 824.050781 324.765625 L 826.863281 327.628906 L 829.296875 330.746094 C 830.914062 332.863281 832.625 334.722656 834.132812 337.304688 L 836.464844 340.941406 L 837.625 342.753906 L 837.917969 343.207031 L 838.066406 343.433594 L 838.117188 343.523438 L 838.589844 344.359375 L 842.609375 351.558594 C 843.914062 354.027344 845.117188 356.714844 846.402344 359.269531 L 847.34375 361.210938 L 847.578125 361.695312 L 847.691406 361.921875 C 847.691406 361.914062 847.667969 361.878906 847.675781 361.894531 L 847.71875 362 L 848.007812 362.8125 L 848.621094 364.449219 L 849.121094 366.328125 L 851.160156 374.824219 C 852.007812 378.246094 853.046875 380.933594 854.148438 383.339844 C 854.835938 385.160156 854.824219 386.601562 854.238281 387.964844 C 854.246094 388.148438 853.796875 388.867188 853.425781 389.476562 L 853.285156 389.710938 L 853.214844 389.816406 L 853 390.121094 L 852.402344 390.96875 C 851.601562 392.085938 850.816406 393.195312 849.996094 394.167969 C 848.367188 396.171875 846.644531 397.859375 844.78125 399.125 C 844.359375 399.355469 843.953125 399.605469 843.546875 399.878906 C 843.023438 400.152344 842.257812 400.429688 841.628906 400.703125 L 841.144531 400.90625 L 841.140625 400.910156 L 840.882812 400.996094 L 839.855469 401.332031 L 837.804688 402.003906 L 829.609375 404.710938 L 813.308594 410.417969 C 807.855469 412.296875 802.476562 414.324219 797.050781 415.96875 C 791.648438 417.84375 786.144531 419.136719 780.632812 420.53125 C 777.878906 421.316406 775.117188 421.496094 772.347656 422.050781 C 769.566406 422.480469 766.828125 423.167969 763.917969 423.183594 L 755.296875 423.660156 C 752.566406 423.804688 749.648438 423.457031 746.816406 423.421875 C 741.082031 423.433594 735.371094 422.316406 729.652344 421.722656 C 735.300781 422.890625 740.8125 424.566406 746.601562 425.148438 C 749.5 425.503906 752.296875 426.066406 755.324219 426.171875 L 763.957031 426.417969 C 766.816406 426.648438 769.757812 426.195312 772.691406 425.996094 C 775.605469 425.691406 778.636719 425.625 781.476562 425.035156 C 787.210938 424.007812 793 423.050781 798.605469 421.53125 C 804.308594 420.226562 809.839844 418.585938 815.351562 416.980469 L 831.929688 412.167969 L 840.261719 409.90625 L 842.34375 409.34375 L 843.390625 409.066406 L 843.644531 408.992188 L 843.777344 408.960938 L 844.167969 408.832031 L 844.679688 408.652344 C 845.382812 408.390625 845.984375 408.21875 846.769531 407.882812 L 849.332031 406.589844 C 852.371094 404.808594 854.835938 402.464844 856.929688 400.089844 C 858.015625 398.90625 858.945312 397.691406 859.867188 396.511719 L 860.886719 395.175781 L 861.347656 394.488281 C 861.742188 393.882812 862.113281 393.410156 862.671875 392.25 C 863.71875 390.238281 864.148438 388.273438 864.300781 386.097656 C 864.390625 383.949219 863.984375 381.914062 863.394531 380.105469 " fill-opacity="1" fill-rule="nonzero"/></g><g clip-path="url(#6d8848631b)"><path fill="#e6e7e8" d="M 493.015625 287 C 493.242188 286.929688 493.714844 286.761719 493.242188 286.96875 C 493.15625 287.011719 493.054688 287.019531 492.964844 287.03125 Z M 525.660156 286.023438 C 525.671875 286.054688 525.671875 286.054688 525.691406 286.09375 C 525.671875 286.054688 525.644531 286.023438 525.628906 285.984375 C 525.636719 285.996094 525.648438 286.011719 525.660156 286.023438 Z M 525.957031 286.476562 C 525.988281 286.59375 525.8125 286.238281 525.75 286.144531 L 525.714844 286.085938 C 525.800781 286.183594 525.875 286.300781 525.957031 286.476562 Z M 534.367188 242.535156 C 534.386719 242.566406 534.414062 242.59375 534.417969 242.621094 C 534.472656 242.722656 534.519531 242.828125 534.546875 242.941406 Z M 522.289062 246.429688 C 522.273438 246.445312 522.261719 246.433594 522.285156 246.410156 C 522.285156 246.445312 522.289062 246.460938 522.332031 246.46875 L 522.363281 246.46875 L 522.390625 246.527344 C 522.34375 246.484375 522.304688 246.433594 522.289062 246.429688 Z M 459.164062 320.285156 L 459.078125 320.582031 C 458.632812 322.136719 458.035156 323.738281 457.769531 325.253906 L 452.320312 359.5625 L 451.652344 363.765625 L 455.835938 362.828125 C 456.382812 362.703125 456.816406 362.554688 457.609375 362.417969 C 457.871094 362.449219 460.28125 361.757812 460.585938 361.382812 L 461.019531 361.089844 L 461.074219 361.054688 L 461.535156 360.695312 L 461.625 360.617188 L 461.8125 360.453125 L 462.550781 359.800781 L 464.027344 358.492188 C 465.042969 357.65625 465.941406 356.636719 467.054688 355.9375 L 470.398438 353.808594 C 471.476562 353.015625 472.6875 352.484375 473.917969 351.984375 L 477.574219 350.375 L 481.449219 349.328125 L 483.394531 348.796875 L 485.398438 348.554688 L 489.429688 348.074219 L 493.5 348.148438 L 495.546875 348.1875 C 496.222656 348.253906 496.886719 348.378906 497.554688 348.476562 L 501.605469 349.050781 C 502.957031 349.367188 504.300781 349.777344 505.652344 350.136719 C 507.027344 350.507812 508.316406 350.855469 509.691406 351.28125 C 511.078125 351.617188 512.53125 351.828125 513.949219 351.753906 C 515.355469 351.730469 516.738281 351.28125 518.078125 350.949219 C 516.671875 351.144531 515.34375 351.449219 513.929688 351.332031 C 512.550781 351.257812 511.242188 350.929688 509.945312 350.472656 C 508.703125 349.945312 507.332031 349.417969 506.046875 348.929688 C 504.738281 348.433594 503.449219 347.894531 502.121094 347.441406 L 497.941406 346.402344 C 497.242188 346.25 496.542969 346.054688 495.835938 345.925781 L 493.699219 345.703125 L 489.40625 345.273438 L 485.085938 345.417969 L 482.90625 345.5 L 480.761719 345.890625 L 476.460938 346.683594 L 472.3125 348.113281 C 470.910156 348.582031 469.527344 349.082031 468.269531 349.859375 L 464.390625 351.980469 C 463.089844 352.6875 462.015625 353.714844 460.820312 354.574219 L 459.0625 355.933594 L 458.90625 356.054688 L 461.710938 343.800781 L 462.648438 339.589844 L 463.113281 337.402344 L 463.539062 335.285156 C 464.089844 332.453125 464.59375 329.554688 465.253906 327.054688 C 465.558594 325.746094 466.085938 324.671875 466.46875 323.472656 L 466.542969 323.253906 L 466.582031 323.144531 C 466.570312 323.15625 466.578125 323.144531 466.585938 323.125 L 466.785156 322.746094 L 467.28125 321.78125 L 468.269531 319.863281 L 472.246094 312.199219 L 476.550781 304.960938 L 477.613281 303.144531 L 478.050781 302.40625 L 478.636719 301.496094 L 480.972656 297.863281 C 481.738281 296.539062 482.578125 295.753906 483.363281 294.75 L 484.550781 293.300781 L 485.136719 292.578125 L 485.378906 292.273438 L 485.417969 292.234375 L 485.617188 292.050781 L 487.207031 290.582031 L 488.535156 289.613281 C 489.363281 288.988281 490.539062 288.300781 491.574219 287.726562 L 492.90625 287.058594 C 492.933594 287.0625 492.964844 287.066406 492.992188 287.066406 C 493.375 287.054688 494.371094 287.410156 494.558594 287.578125 C 496.109375 288.441406 496.828125 289.042969 498.871094 289.90625 C 500.695312 290.769531 502.269531 291.191406 503.976562 291.652344 C 507.363281 292.5 510.714844 292.683594 513.890625 292.632812 C 514.695312 292.621094 515.488281 292.601562 516.253906 292.546875 L 516.523438 292.527344 C 517.597656 294.042969 518.734375 295.136719 520.414062 295.890625 C 522.136719 296.714844 524.148438 296.882812 525.691406 296.617188 C 526.496094 296.496094 527.246094 296.308594 527.859375 296.058594 L 528.34375 295.878906 L 528.589844 295.78125 C 528.265625 295.957031 529.308594 295.429688 529.234375 295.460938 L 529.699219 295.199219 L 531.589844 294.144531 C 533.917969 293.078125 537.050781 290.535156 539.734375 288.238281 C 541.988281 285.785156 544.316406 283.335938 545.976562 280.542969 L 547.332031 278.5 L 547.5 278.242188 C 547.585938 278.089844 547.425781 278.414062 547.714844 277.863281 L 547.78125 277.742188 L 548.03125 277.265625 L 548.535156 276.304688 C 548.90625 275.558594 549.390625 274.289062 549.734375 273.273438 C 549.976562 272.160156 550.320312 271.148438 550.355469 269.917969 C 550.632812 267.535156 550.074219 265.003906 549.242188 262.878906 C 548.792969 261.875 548.28125 260.902344 547.738281 260.023438 L 546.890625 258.820312 L 546.457031 258.222656 L 546.347656 258.078125 C 546.074219 257.714844 546.597656 258.402344 546.519531 258.296875 L 546.367188 258.070312 L 545.15625 256.28125 L 544.480469 254.933594 L 543.550781 253.109375 L 543.027344 252.089844 L 542.335938 250.921875 L 541.625 249.757812 L 541.445312 249.464844 L 541.351562 249.324219 C 541.1875 249.097656 541.601562 249.625 540.957031 248.78125 L 540.609375 248.371094 L 539.917969 247.539062 C 539.664062 247.242188 539.1875 246.78125 538.828125 246.425781 L 537.6875 245.355469 L 536.84375 244.617188 L 535.429688 243.347656 L 534.246094 242.257812 L 534.148438 242.039062 L 533.933594 241.546875 L 533.820312 241.285156 L 533.574219 240.828125 C 533.234375 240.21875 532.871094 239.621094 532.492188 239.042969 C 532.042969 238.472656 531.566406 237.917969 531.070312 237.394531 C 530.542969 236.863281 529.820312 236.355469 529.164062 235.898438 C 527.765625 235.03125 526.140625 234.480469 524.753906 234.300781 C 523.980469 234.140625 523.425781 234.171875 522.789062 234.152344 C 522.160156 234.136719 521.542969 234.15625 521.0625 234.226562 L 520.222656 234.332031 L 520.105469 234.332031 L 519.835938 234.328125 L 519.296875 234.324219 L 516.691406 234.292969 L 514.582031 234.472656 C 514.199219 234.507812 513.902344 234.515625 513.457031 234.578125 L 512.003906 234.828125 C 511.097656 234.996094 509.9375 235.199219 509.25 235.382812 L 507.160156 235.9375 L 502.992188 237.046875 L 500.902344 237.601562 L 498.6875 238.328125 C 495.78125 239.34375 492.648438 240.21875 489.9375 241.386719 L 485.945312 243.039062 C 484.601562 243.609375 483.15625 244.335938 481.761719 244.980469 C 478.917969 246.207031 476.222656 247.910156 473.484375 249.480469 C 472.105469 250.230469 470.855469 251.339844 469.546875 252.28125 L 467.617188 253.753906 L 466.652344 254.488281 C 466.691406 254.4375 465.863281 255.21875 466.167969 254.933594 L 465.890625 255.230469 L 465.511719 255.617188 L 462.511719 258.71875 C 461.5 259.859375 460.46875 261.234375 459.460938 262.488281 C 455.800781 267.035156 452.132812 271.519531 448.390625 275.449219 L 446.996094 276.972656 L 446.40625 277.613281 L 445.652344 278.382812 L 442.648438 281.488281 L 436.636719 287.683594 L 430.625 293.882812 L 429.121094 295.433594 L 428.976562 295.578125 L 428.652344 295.867188 L 427.84375 296.582031 L 424.597656 299.4375 C 423.507812 300.457031 422.457031 301.179688 421.414062 301.972656 L 418.289062 304.359375 L 417.148438 305.25 L 416.3125 305.9375 L 414.652344 307.3125 L 411.324219 310.0625 L 409.65625 311.4375 C 409.101562 311.917969 408.550781 312.566406 407.996094 313.121094 L 404.695312 316.597656 C 403.617188 317.765625 402.480469 318.917969 401.460938 320.105469 L 398.714844 323.769531 C 394.863281 328.589844 391.964844 333.730469 388.84375 339.070312 L 384.828125 346.71875 C 383.527344 349.359375 382.304688 352.199219 381.085938 354.941406 C 378.242188 360.546875 377.488281 367.65625 376.402344 372.414062 C 375.683594 375.691406 375.304688 376.703125 373.976562 380.179688 C 373.265625 382.261719 373.039062 384.207031 373.101562 386.386719 C 373.300781 388.503906 373.835938 390.660156 374.792969 392.367188 C 375.6875 394.15625 376.878906 395.648438 377.65625 396.664062 C 378.558594 397.8125 379.558594 399.105469 380.628906 400.269531 C 382.734375 402.632812 385.234375 404.984375 388.285156 406.726562 L 390.632812 407.917969 L 393.109375 408.816406 C 394.648438 409.296875 395.933594 409.59375 397.355469 409.988281 L 405.691406 412.25 L 422.28125 417.066406 L 430.574219 419.457031 L 432.652344 420.046875 L 434.84375 420.589844 L 439.042969 421.613281 C 444.550781 423.109375 450.421875 424.058594 456.179688 425.09375 C 459.054688 425.652344 462.007812 425.730469 464.914062 426.035156 C 467.832031 426.253906 470.722656 426.652344 473.660156 426.433594 L 482.417969 426.183594 C 485.410156 426.023438 488.171875 425.496094 491.050781 425.132812 L 495.328125 424.527344 C 496.757812 424.296875 498.171875 423.90625 499.585938 423.605469 L 508.03125 421.664062 L 499.472656 422.734375 C 498.046875 422.886719 496.644531 423.132812 495.210938 423.214844 L 490.890625 423.386719 C 488.035156 423.433594 485.078125 423.757812 482.320312 423.65625 L 473.808594 423.175781 C 470.976562 423.160156 468.179688 422.53125 465.382812 422.078125 C 462.59375 421.539062 459.769531 421.3125 457.035156 420.566406 C 451.542969 419.160156 446.101562 417.921875 440.597656 416.015625 L 436.480469 414.699219 L 434.519531 414.066406 L 432.484375 413.339844 L 424.332031 410.46875 L 408.027344 404.753906 L 399.828125 402.039062 C 398.5 401.589844 396.996094 401.148438 395.820312 400.699219 L 394.265625 400.042969 L 392.8125 399.1875 C 390.929688 397.9375 389.191406 396.28125 387.5625 394.285156 C 386.722656 393.296875 386 392.269531 385.164062 391.125 C 384.242188 389.828125 383.675781 389.007812 383.328125 388.191406 C 382.878906 387.367188 382.851562 386.636719 382.757812 385.910156 C 382.789062 385.207031 382.929688 384.261719 383.195312 383.628906 C 384.054688 381.789062 385.742188 377.394531 386.238281 375.035156 C 387.046875 372.019531 387.671875 368.910156 388.265625 366.59375 L 388.691406 364.902344 C 388.882812 364.285156 389.171875 363.566406 389.40625 362.898438 L 389.777344 361.890625 L 389.808594 361.800781 L 389.859375 361.695312 L 390.992188 359.390625 C 392.234375 356.929688 393.316406 354.484375 394.613281 351.988281 L 398.8125 344.433594 C 401.625 339.925781 404.507812 335.050781 407.988281 330.960938 L 410.484375 327.765625 C 411.367188 326.792969 412.289062 325.925781 413.179688 324.996094 L 415.859375 322.242188 C 416.328125 321.785156 416.699219 321.3125 417.238281 320.863281 L 418.933594 319.527344 L 425.441406 314.433594 C 427.898438 312.59375 430.695312 310.730469 432.824219 308.839844 L 436.09375 306.011719 L 436.910156 305.304688 L 437.316406 304.953125 L 437.832031 304.46875 L 438.019531 304.277344 L 439.539062 302.738281 L 445.601562 296.585938 L 451.660156 290.433594 L 454.691406 287.359375 L 456.335938 285.648438 L 457.871094 284 C 462.089844 279.601562 465.742188 275.1875 469.332031 270.789062 C 470.136719 269.808594 470.796875 268.84375 471.699219 267.835938 L 474.726562 264.75 L 475.101562 264.363281 L 475.183594 264.277344 L 475.867188 263.78125 L 477.382812 262.660156 C 478.429688 261.949219 479.324219 261.085938 480.472656 260.453125 C 482.730469 259.164062 484.882812 257.730469 487.335938 256.660156 C 488.546875 256.09375 489.660156 255.5 490.960938 254.933594 L 494.9375 253.253906 C 497.507812 252.121094 499.953125 251.496094 502.464844 250.566406 L 504.34375 249.921875 L 506.425781 249.351562 L 510.585938 248.207031 L 512.667969 247.636719 C 513.367188 247.449219 513.640625 247.46875 514.144531 247.351562 L 514.816406 247.207031 C 515.078125 247.15625 515.5 247.136719 515.835938 247.097656 L 518.019531 246.898438 C 518.605469 246.929688 518.917969 246.980469 519.734375 246.972656 L 520.679688 246.972656 C 521.109375 246.929688 519.90625 247.066406 521.683594 246.878906 L 522.265625 246.808594 C 522.375 246.800781 522.433594 246.800781 522.511719 246.792969 L 522.6875 247.195312 L 522.914062 247.683594 C 522.917969 247.699219 523.050781 248.015625 522.957031 247.769531 L 523.359375 248.554688 C 523.621094 249.035156 524.011719 249.65625 524.265625 249.949219 L 525.03125 250.804688 C 525.894531 251.664062 526.363281 252.039062 526.824219 252.460938 L 529.867188 255.144531 C 530.019531 255.285156 530.097656 255.292969 530.316406 255.535156 L 531.019531 256.355469 L 531.15625 256.515625 L 531.167969 256.539062 L 531.269531 256.707031 L 531.683594 257.386719 L 532.117188 258.066406 L 532.597656 258.960938 L 533.675781 260.953125 C 534.136719 261.765625 534.636719 262.652344 535.097656 263.382812 L 536.34375 265.144531 L 537.503906 266.6875 L 538.046875 267.628906 C 538.214844 268.183594 538.40625 268.515625 538.332031 269.023438 C 538.398438 269.238281 538.199219 269.609375 538.210938 269.914062 C 538.054688 270.246094 538.097656 270.355469 537.867188 270.90625 L 537.386719 271.871094 L 537.167969 272.320312 C 537.167969 272.320312 537.15625 272.332031 537.160156 272.324219 L 537.035156 272.519531 L 536.027344 274.089844 C 534.800781 276.320312 533.125 278.046875 531.582031 279.914062 C 529.839844 281.277344 528.75 282.746094 525.867188 284.21875 L 524.867188 284.8125 C 524.648438 284.46875 524.460938 284.105469 524.199219 283.78125 C 523.1875 282.800781 521.945312 281.835938 520.582031 281.578125 C 519.890625 281.402344 519.171875 281.296875 518.488281 281.273438 L 517.941406 281.296875 L 516.519531 281.386719 L 515.527344 281.472656 C 514.855469 281.539062 514.214844 281.566406 513.574219 281.589844 C 511.011719 281.675781 508.554688 281.660156 506.328125 281.171875 C 503.945312 280.628906 502.570312 280.167969 499.886719 278.644531 C 497.574219 277.398438 495.726562 276.921875 493.234375 276.835938 L 492.285156 276.847656 C 491.839844 276.882812 491.308594 276.96875 490.832031 277.070312 C 489.332031 277.464844 490.453125 277.105469 488.804688 277.757812 L 486.636719 278.957031 C 485.191406 279.835938 483.886719 280.652344 482.457031 281.804688 C 481.765625 282.363281 481.019531 282.960938 480.402344 283.515625 L 478.875 285.039062 L 478.292969 285.632812 L 477.917969 286.113281 L 477.175781 287.085938 L 475.699219 289.039062 C 474.757812 290.332031 473.632812 291.6875 473.007812 292.898438 L 470.8125 296.621094 L 470.265625 297.546875 L 469.640625 298.683594 L 468.59375 300.644531 L 464.453125 308.476562 L 460.890625 316.359375 L 460.007812 318.328125 L 459.339844 319.804688 C 459.160156 320.226562 459.265625 320.007812 459.210938 320.140625 L 459.164062 320.285156 " fill-opacity="1" fill-rule="nonzero"/></g></svg>